<svg height="512pt" viewBox="0 -94 512.00004 512" width="512pt" xmlns="http://www.w3.org/2000/svg"><path d="m157.800781 99.628906h-88.59375v-94.625c0-2.761718 2.242188-5.003906 5.007813-5.003906h19.230468c1.734376 0 3.34375.898438 4.257813 2.375zm0 0" fill="#d8d1d7"/><path d="m97.703125 2.375c-.914063-1.476562-2.523437-2.375-4.257813-2.375h-19.230468c-.867188 0-1.667969.238281-2.375.625.738281.410156 1.378906 1.003906 1.835937 1.75l60.097657 97.253906h24.027343zm0 0" fill="#cac0c9"/><path d="m499.558594 161.320312h-317.089844c-42.25 0-100.105469-24.085937-138.550781-41.605468l-42.160157-19.21875c-1.070312-.484375-1.757812-1.554688-1.757812-2.730469v-8.578125c0-1.660156 1.34375-3.003906 3.003906-3.003906h440.03125c10.707032 0 20.910156 4.546875 28.066406 12.507812l37.6875 41.90625c7.191407 7.992188 1.515626 20.722656-9.230468 20.722656zm0 0" fill="#d8d1d7"/><path d="m508.789062 140.597656-37.683593-41.90625c-7.160157-7.960937-17.363281-12.507812-28.066407-12.507812h-22.03125l40.148438 44.644531c5.207031 5.792969 1.101562 15.011719-6.6875 15.011719h-346.367188c25.710938 8.839844 52.1875 15.480468 74.367188 15.480468h317.089844c10.746094 0 16.421875-12.730468 9.230468-20.722656zm0 0" fill="#cac0c9"/><path d="m253.746094 128.890625-75.5 68.761719c-2.8125 2.5625-1 7.242187 2.804687 7.242187h33.609375c2.8125 0 5.570313-.789062 7.957032-2.28125l111.082031-69.425781c4.660156-2.914062 2.554687-10.109375-2.941407-10.050781l-63.738281.535156c-4.917969.050781-9.640625 1.90625-13.273437 5.21875zm0 0" fill="#e6e2e6"/><path d="m330.757812 123.136719-32.730468.273437c4.089844 1.324219 5.238281 7.210938 1.132812 9.777344l-111.082031 69.425781c-2.203125 1.378907-4.726563 2.148438-7.316406 2.257813.09375.007812.1875.023437.289062.023437h33.605469c2.816406 0 5.574219-.789062 7.960938-2.28125l111.078124-69.429687c4.660157-2.910156 2.554688-10.105469-2.9375-10.046875zm0 0" fill="#d8d1d7"/><path d="m479.867188 108.273438h-62.484376c-2.867187 0-4.375 3.390624-2.460937 5.519531l10.367187 11.519531c1.707032 1.898438 4.144532 2.980469 6.695313 2.980469h65.886719zm0 0" fill="#8bcaff"/><path d="m458.878906 128.292969h38.992188l-18.003906-20.019531h-38.996094zm0 0" fill="#60b8ff"/><path d="m333.703125 227.851562v24.742188h-328.582031c-2.828125 0-5.121094 2.292969-5.121094 5.121094v61.234375c0 2.828125 2.292969 5.121093 5.121094 5.121093h501.757812c2.828125 0 5.121094-2.292968 5.121094-5.121093v-91.097657c0-2.828124-2.292969-5.121093-5.121094-5.121093h-168.054687c-2.828125 0-5.121094 2.292969-5.121094 5.121093zm0 0" fill="#ab9faa"/><path d="m506.878906 222.730469h-37.507812v80.117187c0 2.828125-2.292969 5.121094-5.121094 5.121094h-464.25v10.980469c0 2.828125 2.292969 5.121093 5.121094 5.121093h501.757812c2.828125 0 5.121094-2.292968 5.121094-5.121093v-91.097657c0-2.828124-2.292969-5.121093-5.121094-5.121093zm0 0" fill="#9c8f9a"/><g fill="#b4dbff"><path d="m57.496094 292.671875h-32.765625c-4.242188 0-7.679688-3.441406-7.679688-7.679687 0-4.242188 3.4375-7.679688 7.679688-7.679688h32.765625c4.242187 0 7.679687 3.4375 7.679687 7.679688 0 4.242187-3.4375 7.679687-7.679687 7.679687zm0 0"/><path d="m120.855469 292.671875h-32.769531c-4.242188 0-7.679688-3.441406-7.679688-7.679687 0-4.242188 3.4375-7.679688 7.679688-7.679688h32.769531c4.242187 0 7.679687 3.4375 7.679687 7.679688 0 4.242187-3.4375 7.679687-7.679687 7.679687zm0 0"/><path d="m271.019531 292.671875h-120.402343c-4.238282 0-7.679688-3.441406-7.679688-7.679687 0-4.242188 3.441406-7.679688 7.679688-7.679688h120.402343c4.242188 0 7.679688 3.4375 7.679688 7.679688 0 4.242187-3.4375 7.679687-7.679688 7.679687zm0 0"/></g></svg>